<mxfile host="app.diagrams.net" modified="2024-03-21T06:05:58.063Z" agent="Mozilla/5.0 (Windows NT 10.0; Win64; x64) AppleWebKit/537.36 (KHTML, like Gecko) Chrome/123.0.0.0 Safari/537.36" etag="FShZ7lf_gP63yb5yXqjg" version="24.0.7" type="github">
  <diagram name="Page-1" id="MAmnwF9kvhk6R6BzGW2U">
    <mxGraphModel dx="2284" dy="746" grid="1" gridSize="10" guides="1" tooltips="1" connect="1" arrows="1" fold="1" page="1" pageScale="1" pageWidth="850" pageHeight="1100" math="0" shadow="0">
      <root>
        <mxCell id="0" />
        <mxCell id="1" parent="0" />
        <mxCell id="Jj5znEcq5yF1Lm28ehH7-1" value="" style="ellipse;whiteSpace=wrap;html=1;" vertex="1" parent="1">
          <mxGeometry x="360" y="340" width="120" height="80" as="geometry" />
        </mxCell>
        <mxCell id="Jj5znEcq5yF1Lm28ehH7-2" value="" style="rounded=0;whiteSpace=wrap;html=1;" vertex="1" parent="1">
          <mxGeometry x="80" y="200" width="120" height="60" as="geometry" />
        </mxCell>
        <mxCell id="Jj5znEcq5yF1Lm28ehH7-3" value="" style="rounded=0;whiteSpace=wrap;html=1;" vertex="1" parent="1">
          <mxGeometry x="80" y="480" width="120" height="60" as="geometry" />
        </mxCell>
        <mxCell id="Jj5znEcq5yF1Lm28ehH7-4" value="" style="rounded=0;whiteSpace=wrap;html=1;" vertex="1" parent="1">
          <mxGeometry x="600" y="200" width="120" height="60" as="geometry" />
        </mxCell>
        <mxCell id="Jj5znEcq5yF1Lm28ehH7-5" value="" style="rounded=0;whiteSpace=wrap;html=1;" vertex="1" parent="1">
          <mxGeometry x="600" y="480" width="120" height="60" as="geometry" />
        </mxCell>
        <mxCell id="Jj5znEcq5yF1Lm28ehH7-11" value="" style="curved=1;endArrow=classic;html=1;rounded=0;entryX=1;entryY=0.5;entryDx=0;entryDy=0;" edge="1" parent="1" target="Jj5znEcq5yF1Lm28ehH7-2">
          <mxGeometry width="50" height="50" relative="1" as="geometry">
            <mxPoint x="410" y="340" as="sourcePoint" />
            <mxPoint x="460" y="290" as="targetPoint" />
            <Array as="points">
              <mxPoint x="460" y="340" />
              <mxPoint x="330" y="240" />
            </Array>
          </mxGeometry>
        </mxCell>
        <mxCell id="Jj5znEcq5yF1Lm28ehH7-12" value="" style="curved=1;endArrow=classic;html=1;rounded=0;exitX=0.5;exitY=1;exitDx=0;exitDy=0;entryX=-0.008;entryY=0.425;entryDx=0;entryDy=0;entryPerimeter=0;" edge="1" parent="1" source="Jj5znEcq5yF1Lm28ehH7-2" target="Jj5znEcq5yF1Lm28ehH7-1">
          <mxGeometry width="50" height="50" relative="1" as="geometry">
            <mxPoint x="150" y="360" as="sourcePoint" />
            <mxPoint x="160" y="380" as="targetPoint" />
            <Array as="points">
              <mxPoint x="200" y="360" />
              <mxPoint x="280" y="390" />
            </Array>
          </mxGeometry>
        </mxCell>
        <mxCell id="Jj5znEcq5yF1Lm28ehH7-13" value="" style="curved=1;endArrow=classic;html=1;rounded=0;exitX=0.5;exitY=1;exitDx=0;exitDy=0;entryX=0.017;entryY=0.325;entryDx=0;entryDy=0;entryPerimeter=0;" edge="1" parent="1" target="Jj5znEcq5yF1Lm28ehH7-1">
          <mxGeometry width="50" height="50" relative="1" as="geometry">
            <mxPoint x="180" y="260" as="sourcePoint" />
            <mxPoint x="350" y="370" as="targetPoint" />
            <Array as="points">
              <mxPoint x="240" y="360" />
            </Array>
          </mxGeometry>
        </mxCell>
        <mxCell id="Jj5znEcq5yF1Lm28ehH7-14" value="" style="curved=1;endArrow=classic;html=1;rounded=0;entryX=1;entryY=0.25;entryDx=0;entryDy=0;exitX=0;exitY=1;exitDx=0;exitDy=0;" edge="1" parent="1" source="Jj5znEcq5yF1Lm28ehH7-1" target="Jj5znEcq5yF1Lm28ehH7-3">
          <mxGeometry width="50" height="50" relative="1" as="geometry">
            <mxPoint x="340" y="510" as="sourcePoint" />
            <mxPoint x="390" y="460" as="targetPoint" />
            <Array as="points">
              <mxPoint x="310" y="408" />
              <mxPoint x="250" y="440" />
            </Array>
          </mxGeometry>
        </mxCell>
        <mxCell id="Jj5znEcq5yF1Lm28ehH7-16" value="" style="curved=1;endArrow=classic;html=1;rounded=0;exitX=0.633;exitY=1.013;exitDx=0;exitDy=0;exitPerimeter=0;" edge="1" parent="1" source="Jj5znEcq5yF1Lm28ehH7-1">
          <mxGeometry width="50" height="50" relative="1" as="geometry">
            <mxPoint x="550" y="560" as="sourcePoint" />
            <mxPoint x="600" y="510" as="targetPoint" />
            <Array as="points">
              <mxPoint x="490" y="490" />
              <mxPoint x="550" y="510" />
            </Array>
          </mxGeometry>
        </mxCell>
        <mxCell id="Jj5znEcq5yF1Lm28ehH7-17" value="" style="curved=1;endArrow=classic;html=1;rounded=0;" edge="1" parent="1" target="Jj5znEcq5yF1Lm28ehH7-1">
          <mxGeometry width="50" height="50" relative="1" as="geometry">
            <mxPoint x="610" y="480" as="sourcePoint" />
            <mxPoint x="660" y="430" as="targetPoint" />
            <Array as="points">
              <mxPoint x="660" y="480" />
              <mxPoint x="550" y="400" />
            </Array>
          </mxGeometry>
        </mxCell>
        <mxCell id="Jj5znEcq5yF1Lm28ehH7-18" value="" style="curved=1;endArrow=classic;html=1;rounded=0;exitX=0.392;exitY=0;exitDx=0;exitDy=0;exitPerimeter=0;" edge="1" parent="1" source="Jj5znEcq5yF1Lm28ehH7-5">
          <mxGeometry width="50" height="50" relative="1" as="geometry">
            <mxPoint x="650" y="470" as="sourcePoint" />
            <mxPoint x="480" y="370" as="targetPoint" />
            <Array as="points">
              <mxPoint x="662" y="461" />
              <mxPoint x="552" y="381" />
            </Array>
          </mxGeometry>
        </mxCell>
        <mxCell id="Jj5znEcq5yF1Lm28ehH7-19" value="" style="curved=1;endArrow=classic;html=1;rounded=0;exitX=0.583;exitY=0;exitDx=0;exitDy=0;exitPerimeter=0;" edge="1" parent="1" source="Jj5znEcq5yF1Lm28ehH7-5">
          <mxGeometry width="50" height="50" relative="1" as="geometry">
            <mxPoint x="670" y="470" as="sourcePoint" />
            <mxPoint x="470" y="360" as="targetPoint" />
            <Array as="points">
              <mxPoint x="670" y="450" />
              <mxPoint x="620" y="410" />
              <mxPoint x="542" y="371" />
            </Array>
          </mxGeometry>
        </mxCell>
        <mxCell id="Jj5znEcq5yF1Lm28ehH7-20" value="" style="curved=1;endArrow=classic;html=1;rounded=0;entryX=0.5;entryY=1;entryDx=0;entryDy=0;exitX=1;exitY=0;exitDx=0;exitDy=0;" edge="1" parent="1" source="Jj5znEcq5yF1Lm28ehH7-1" target="Jj5znEcq5yF1Lm28ehH7-4">
          <mxGeometry width="50" height="50" relative="1" as="geometry">
            <mxPoint x="440" y="340" as="sourcePoint" />
            <mxPoint x="490" y="290" as="targetPoint" />
            <Array as="points">
              <mxPoint x="560" y="345" />
              <mxPoint x="640" y="320" />
            </Array>
          </mxGeometry>
        </mxCell>
        <mxCell id="Jj5znEcq5yF1Lm28ehH7-21" value="" style="curved=1;endArrow=classic;html=1;rounded=0;exitX=0;exitY=0.25;exitDx=0;exitDy=0;" edge="1" parent="1" source="Jj5znEcq5yF1Lm28ehH7-4" target="Jj5znEcq5yF1Lm28ehH7-1">
          <mxGeometry width="50" height="50" relative="1" as="geometry">
            <mxPoint x="490" y="220" as="sourcePoint" />
            <mxPoint x="540" y="170" as="targetPoint" />
            <Array as="points">
              <mxPoint x="540" y="220" />
              <mxPoint x="490" y="260" />
            </Array>
          </mxGeometry>
        </mxCell>
        <mxCell id="Jj5znEcq5yF1Lm28ehH7-22" value="" style="curved=1;endArrow=classic;html=1;rounded=0;entryX=0.758;entryY=0.075;entryDx=0;entryDy=0;entryPerimeter=0;exitX=0;exitY=0.5;exitDx=0;exitDy=0;" edge="1" parent="1" source="Jj5znEcq5yF1Lm28ehH7-4" target="Jj5znEcq5yF1Lm28ehH7-1">
          <mxGeometry width="50" height="50" relative="1" as="geometry">
            <mxPoint x="520" y="300" as="sourcePoint" />
            <mxPoint x="570" y="250" as="targetPoint" />
            <Array as="points">
              <mxPoint x="540" y="240" />
            </Array>
          </mxGeometry>
        </mxCell>
        <mxCell id="Jj5znEcq5yF1Lm28ehH7-23" value="JIS 0" style="text;html=1;align=center;verticalAlign=middle;whiteSpace=wrap;rounded=0;" vertex="1" parent="1">
          <mxGeometry x="390" y="370" width="60" height="30" as="geometry" />
        </mxCell>
        <mxCell id="Jj5znEcq5yF1Lm28ehH7-24" value="Lawyer" style="text;html=1;align=center;verticalAlign=middle;whiteSpace=wrap;rounded=0;" vertex="1" parent="1">
          <mxGeometry x="110" y="215" width="60" height="30" as="geometry" />
        </mxCell>
        <mxCell id="Jj5znEcq5yF1Lm28ehH7-25" value="Printer" style="text;html=1;align=center;verticalAlign=middle;whiteSpace=wrap;rounded=0;" vertex="1" parent="1">
          <mxGeometry x="110" y="495" width="60" height="30" as="geometry" />
        </mxCell>
        <mxCell id="Jj5znEcq5yF1Lm28ehH7-26" value="Judge" style="text;html=1;align=center;verticalAlign=middle;whiteSpace=wrap;rounded=0;" vertex="1" parent="1">
          <mxGeometry x="630" y="215" width="60" height="30" as="geometry" />
        </mxCell>
        <mxCell id="Jj5znEcq5yF1Lm28ehH7-27" value="Register" style="text;html=1;align=center;verticalAlign=middle;whiteSpace=wrap;rounded=0;" vertex="1" parent="1">
          <mxGeometry x="630" y="495" width="60" height="30" as="geometry" />
        </mxCell>
        <mxCell id="Jj5znEcq5yF1Lm28ehH7-28" value="Case Details" style="text;html=1;align=center;verticalAlign=middle;whiteSpace=wrap;rounded=0;" vertex="1" parent="1">
          <mxGeometry x="290" y="215" width="90" height="30" as="geometry" />
        </mxCell>
        <mxCell id="Jj5znEcq5yF1Lm28ehH7-29" value="Case Query" style="text;html=1;align=center;verticalAlign=middle;whiteSpace=wrap;rounded=0;" vertex="1" parent="1">
          <mxGeometry x="220" y="280" width="90" height="30" as="geometry" />
        </mxCell>
        <mxCell id="Jj5znEcq5yF1Lm28ehH7-30" value="Login Info" style="text;html=1;align=center;verticalAlign=middle;whiteSpace=wrap;rounded=0;" vertex="1" parent="1">
          <mxGeometry x="110" y="310" width="60" height="30" as="geometry" />
        </mxCell>
        <mxCell id="Jj5znEcq5yF1Lm28ehH7-31" value="Print Bill" style="text;html=1;align=center;verticalAlign=middle;whiteSpace=wrap;rounded=0;" vertex="1" parent="1">
          <mxGeometry x="250" y="440" width="60" height="30" as="geometry" />
        </mxCell>
        <mxCell id="Jj5znEcq5yF1Lm28ehH7-32" value="Case Details" style="text;html=1;align=center;verticalAlign=middle;whiteSpace=wrap;rounded=0;" vertex="1" parent="1">
          <mxGeometry x="390" y="480" width="80" height="30" as="geometry" />
        </mxCell>
        <mxCell id="Jj5znEcq5yF1Lm28ehH7-34" value="Case Details" style="text;html=1;align=center;verticalAlign=middle;whiteSpace=wrap;rounded=0;" vertex="1" parent="1">
          <mxGeometry x="640" y="320" width="90" height="30" as="geometry" />
        </mxCell>
        <mxCell id="Jj5znEcq5yF1Lm28ehH7-35" value="Case Details" style="text;html=1;align=center;verticalAlign=middle;whiteSpace=wrap;rounded=0;" vertex="1" parent="1">
          <mxGeometry x="470" y="420" width="90" height="30" as="geometry" />
        </mxCell>
        <mxCell id="Jj5znEcq5yF1Lm28ehH7-36" value="Case Query" style="text;html=1;align=center;verticalAlign=middle;whiteSpace=wrap;rounded=0;" vertex="1" parent="1">
          <mxGeometry x="570" y="420" width="70" height="20" as="geometry" />
        </mxCell>
        <mxCell id="Jj5znEcq5yF1Lm28ehH7-38" value="Login Info" style="text;html=1;align=center;verticalAlign=middle;whiteSpace=wrap;rounded=0;" vertex="1" parent="1">
          <mxGeometry x="610" y="380" width="60" height="30" as="geometry" />
        </mxCell>
        <mxCell id="Jj5znEcq5yF1Lm28ehH7-39" value="Login Info" style="text;html=1;align=center;verticalAlign=middle;whiteSpace=wrap;rounded=0;" vertex="1" parent="1">
          <mxGeometry x="470" y="200" width="60" height="30" as="geometry" />
        </mxCell>
        <mxCell id="Jj5znEcq5yF1Lm28ehH7-40" value="Case Query" style="text;html=1;align=center;verticalAlign=middle;whiteSpace=wrap;rounded=0;" vertex="1" parent="1">
          <mxGeometry x="520" y="265" width="90" height="30" as="geometry" />
        </mxCell>
        <mxCell id="Jj5znEcq5yF1Lm28ehH7-41" value="&lt;b&gt;Level 0 Diagram/Context Diagram&lt;/b&gt;" style="text;html=1;align=center;verticalAlign=middle;whiteSpace=wrap;rounded=0;" vertex="1" parent="1">
          <mxGeometry x="80" y="90" width="230" height="30" as="geometry" />
        </mxCell>
        <mxCell id="Jj5znEcq5yF1Lm28ehH7-42" value="&lt;b&gt;Level 1 Diagram/Context Diagram&lt;/b&gt;" style="text;html=1;align=center;verticalAlign=middle;whiteSpace=wrap;rounded=0;" vertex="1" parent="1">
          <mxGeometry x="80" y="610" width="230" height="30" as="geometry" />
        </mxCell>
        <mxCell id="Jj5znEcq5yF1Lm28ehH7-43" value="" style="ellipse;whiteSpace=wrap;html=1;aspect=fixed;" vertex="1" parent="1">
          <mxGeometry x="400" y="680" width="80" height="80" as="geometry" />
        </mxCell>
        <mxCell id="Jj5znEcq5yF1Lm28ehH7-44" value="" style="ellipse;whiteSpace=wrap;html=1;aspect=fixed;" vertex="1" parent="1">
          <mxGeometry y="880" width="80" height="80" as="geometry" />
        </mxCell>
        <mxCell id="Jj5znEcq5yF1Lm28ehH7-45" value="" style="ellipse;whiteSpace=wrap;html=1;aspect=fixed;" vertex="1" parent="1">
          <mxGeometry x="400" y="1030" width="80" height="80" as="geometry" />
        </mxCell>
        <mxCell id="Jj5znEcq5yF1Lm28ehH7-46" value="" style="ellipse;whiteSpace=wrap;html=1;aspect=fixed;" vertex="1" parent="1">
          <mxGeometry x="640" y="1120" width="80" height="80" as="geometry" />
        </mxCell>
        <mxCell id="Jj5znEcq5yF1Lm28ehH7-47" value="" style="ellipse;whiteSpace=wrap;html=1;aspect=fixed;" vertex="1" parent="1">
          <mxGeometry x="120" y="1040" width="80" height="80" as="geometry" />
        </mxCell>
        <mxCell id="Jj5znEcq5yF1Lm28ehH7-48" value="" style="ellipse;whiteSpace=wrap;html=1;aspect=fixed;" vertex="1" parent="1">
          <mxGeometry x="240" y="1230" width="80" height="80" as="geometry" />
        </mxCell>
        <mxCell id="Jj5znEcq5yF1Lm28ehH7-49" value="Log in" style="text;html=1;align=center;verticalAlign=middle;whiteSpace=wrap;rounded=0;" vertex="1" parent="1">
          <mxGeometry x="410" y="705" width="60" height="30" as="geometry" />
        </mxCell>
        <mxCell id="Jj5znEcq5yF1Lm28ehH7-50" value="Query Cases" style="text;html=1;align=center;verticalAlign=middle;whiteSpace=wrap;rounded=0;" vertex="1" parent="1">
          <mxGeometry x="400" y="1055" width="80" height="30" as="geometry" />
        </mxCell>
        <mxCell id="Jj5znEcq5yF1Lm28ehH7-51" value="Register Cases" style="text;html=1;align=center;verticalAlign=middle;whiteSpace=wrap;rounded=0;" vertex="1" parent="1">
          <mxGeometry x="650" y="1145" width="60" height="30" as="geometry" />
        </mxCell>
        <mxCell id="Jj5znEcq5yF1Lm28ehH7-52" value="Assign New Cases" style="text;html=1;align=center;verticalAlign=middle;whiteSpace=wrap;rounded=0;" vertex="1" parent="1">
          <mxGeometry x="245" y="1255" width="70" height="30" as="geometry" />
        </mxCell>
        <mxCell id="Jj5znEcq5yF1Lm28ehH7-53" value="Update Case Summary" style="text;html=1;align=center;verticalAlign=middle;whiteSpace=wrap;rounded=0;" vertex="1" parent="1">
          <mxGeometry x="130" y="1070" width="60" height="30" as="geometry" />
        </mxCell>
        <mxCell id="Jj5znEcq5yF1Lm28ehH7-54" value="Edit Accounts" style="text;html=1;align=center;verticalAlign=middle;whiteSpace=wrap;rounded=0;" vertex="1" parent="1">
          <mxGeometry x="10" y="910" width="60" height="30" as="geometry" />
        </mxCell>
        <mxCell id="Jj5znEcq5yF1Lm28ehH7-55" value="" style="endArrow=classic;html=1;rounded=0;entryX=0.5;entryY=0;entryDx=0;entryDy=0;exitX=0.5;exitY=1;exitDx=0;exitDy=0;" edge="1" parent="1" source="Jj5znEcq5yF1Lm28ehH7-43" target="Jj5znEcq5yF1Lm28ehH7-45">
          <mxGeometry width="50" height="50" relative="1" as="geometry">
            <mxPoint x="400" y="1010" as="sourcePoint" />
            <mxPoint x="450" y="960" as="targetPoint" />
          </mxGeometry>
        </mxCell>
        <mxCell id="Jj5znEcq5yF1Lm28ehH7-56" value="" style="endArrow=classic;html=1;rounded=0;exitX=0.5;exitY=1;exitDx=0;exitDy=0;" edge="1" parent="1" source="Jj5znEcq5yF1Lm28ehH7-45">
          <mxGeometry width="50" height="50" relative="1" as="geometry">
            <mxPoint x="400" y="1010" as="sourcePoint" />
            <mxPoint x="440" y="1240" as="targetPoint" />
          </mxGeometry>
        </mxCell>
        <mxCell id="Jj5znEcq5yF1Lm28ehH7-60" value="" style="curved=1;endArrow=classic;html=1;rounded=0;entryX=0.613;entryY=-0.025;entryDx=0;entryDy=0;entryPerimeter=0;" edge="1" parent="1" source="Jj5znEcq5yF1Lm28ehH7-43" target="Jj5znEcq5yF1Lm28ehH7-47">
          <mxGeometry width="50" height="50" relative="1" as="geometry">
            <mxPoint x="255" y="900" as="sourcePoint" />
            <mxPoint x="305" y="850" as="targetPoint" />
            <Array as="points">
              <mxPoint x="255" y="850" />
            </Array>
          </mxGeometry>
        </mxCell>
        <mxCell id="Jj5znEcq5yF1Lm28ehH7-61" value="" style="curved=1;endArrow=classic;html=1;rounded=0;entryX=0.8;entryY=0.063;entryDx=0;entryDy=0;entryPerimeter=0;exitX=0;exitY=0.5;exitDx=0;exitDy=0;" edge="1" parent="1" source="Jj5znEcq5yF1Lm28ehH7-43" target="Jj5znEcq5yF1Lm28ehH7-44">
          <mxGeometry width="50" height="50" relative="1" as="geometry">
            <mxPoint x="240" y="850" as="sourcePoint" />
            <mxPoint x="290" y="800" as="targetPoint" />
            <Array as="points">
              <mxPoint x="270" y="790" />
              <mxPoint x="240" y="800" />
              <mxPoint x="100" y="820" />
            </Array>
          </mxGeometry>
        </mxCell>
        <mxCell id="Jj5znEcq5yF1Lm28ehH7-63" value="" style="curved=1;endArrow=classic;html=1;rounded=0;exitX=0.5;exitY=1;exitDx=0;exitDy=0;" edge="1" parent="1" source="Jj5znEcq5yF1Lm28ehH7-44">
          <mxGeometry width="50" height="50" relative="1" as="geometry">
            <mxPoint x="40" y="1050" as="sourcePoint" />
            <mxPoint x="-50" y="1050" as="targetPoint" />
            <Array as="points">
              <mxPoint x="60" y="1070" />
            </Array>
          </mxGeometry>
        </mxCell>
        <mxCell id="Jj5znEcq5yF1Lm28ehH7-64" value="" style="curved=1;endArrow=classic;html=1;rounded=0;exitX=0.5;exitY=1;exitDx=0;exitDy=0;" edge="1" parent="1">
          <mxGeometry width="50" height="50" relative="1" as="geometry">
            <mxPoint x="125" y="1100" as="sourcePoint" />
            <mxPoint x="35" y="1190" as="targetPoint" />
            <Array as="points">
              <mxPoint x="145" y="1210" />
            </Array>
          </mxGeometry>
        </mxCell>
        <mxCell id="Jj5znEcq5yF1Lm28ehH7-65" value="" style="curved=1;endArrow=classic;html=1;rounded=0;" edge="1" parent="1">
          <mxGeometry width="50" height="50" relative="1" as="geometry">
            <mxPoint x="60" y="1270" as="sourcePoint" />
            <mxPoint x="160" y="1130" as="targetPoint" />
            <Array as="points">
              <mxPoint x="150" y="1290" />
            </Array>
          </mxGeometry>
        </mxCell>
        <mxCell id="Jj5znEcq5yF1Lm28ehH7-66" value="" style="curved=1;endArrow=classic;html=1;rounded=0;entryX=0;entryY=1;entryDx=0;entryDy=0;" edge="1" parent="1" target="Jj5znEcq5yF1Lm28ehH7-52">
          <mxGeometry width="50" height="50" relative="1" as="geometry">
            <mxPoint x="180" y="1420" as="sourcePoint" />
            <mxPoint x="90" y="1410" as="targetPoint" />
            <Array as="points">
              <mxPoint x="170" y="1400" />
              <mxPoint x="150" y="1280" />
            </Array>
          </mxGeometry>
        </mxCell>
        <mxCell id="Jj5znEcq5yF1Lm28ehH7-67" value="" style="endArrow=classic;html=1;rounded=0;exitX=0.5;exitY=1;exitDx=0;exitDy=0;" edge="1" parent="1" source="Jj5znEcq5yF1Lm28ehH7-48">
          <mxGeometry width="50" height="50" relative="1" as="geometry">
            <mxPoint x="400" y="1210" as="sourcePoint" />
            <mxPoint x="280" y="1440" as="targetPoint" />
          </mxGeometry>
        </mxCell>
        <mxCell id="Jj5znEcq5yF1Lm28ehH7-68" value="" style="curved=1;endArrow=classic;html=1;rounded=0;exitX=0.5;exitY=1;exitDx=0;exitDy=0;" edge="1" parent="1">
          <mxGeometry width="50" height="50" relative="1" as="geometry">
            <mxPoint x="570" y="980" as="sourcePoint" />
            <mxPoint x="480" y="1070" as="targetPoint" />
            <Array as="points">
              <mxPoint x="590" y="1090" />
            </Array>
          </mxGeometry>
        </mxCell>
        <mxCell id="Jj5znEcq5yF1Lm28ehH7-69" value="" style="curved=1;endArrow=classic;html=1;rounded=0;entryX=0;entryY=0.5;entryDx=0;entryDy=0;" edge="1" parent="1" target="Jj5znEcq5yF1Lm28ehH7-45">
          <mxGeometry width="50" height="50" relative="1" as="geometry">
            <mxPoint x="320" y="970" as="sourcePoint" />
            <mxPoint x="245" y="1060" as="targetPoint" />
            <Array as="points">
              <mxPoint x="310" y="1060" />
              <mxPoint x="355" y="1080" />
            </Array>
          </mxGeometry>
        </mxCell>
        <mxCell id="Jj5znEcq5yF1Lm28ehH7-70" value="" style="curved=1;endArrow=classic;html=1;rounded=0;exitX=0.5;exitY=1;exitDx=0;exitDy=0;" edge="1" parent="1">
          <mxGeometry width="50" height="50" relative="1" as="geometry">
            <mxPoint x="640" y="1160" as="sourcePoint" />
            <mxPoint x="550" y="1250" as="targetPoint" />
            <Array as="points">
              <mxPoint x="550" y="1160" />
            </Array>
          </mxGeometry>
        </mxCell>
        <mxCell id="Jj5znEcq5yF1Lm28ehH7-71" value="" style="curved=1;endArrow=classic;html=1;rounded=0;exitX=0.5;exitY=1;exitDx=0;exitDy=0;" edge="1" parent="1">
          <mxGeometry width="50" height="50" relative="1" as="geometry">
            <mxPoint x="810" y="1065" as="sourcePoint" />
            <mxPoint x="720" y="1155" as="targetPoint" />
            <Array as="points">
              <mxPoint x="830" y="1175" />
            </Array>
          </mxGeometry>
        </mxCell>
        <mxCell id="Jj5znEcq5yF1Lm28ehH7-72" value="" style="curved=1;endArrow=classic;html=1;rounded=0;exitX=0.5;exitY=1;exitDx=0;exitDy=0;entryX=0.5;entryY=0;entryDx=0;entryDy=0;" edge="1" parent="1" target="Jj5znEcq5yF1Lm28ehH7-46">
          <mxGeometry width="50" height="50" relative="1" as="geometry">
            <mxPoint x="475" y="735" as="sourcePoint" />
            <mxPoint x="385" y="825" as="targetPoint" />
            <Array as="points">
              <mxPoint x="670" y="710" />
            </Array>
          </mxGeometry>
        </mxCell>
        <mxCell id="Jj5znEcq5yF1Lm28ehH7-73" value="" style="curved=1;endArrow=classic;html=1;rounded=0;exitX=0.5;exitY=1;exitDx=0;exitDy=0;" edge="1" parent="1">
          <mxGeometry width="50" height="50" relative="1" as="geometry">
            <mxPoint x="561" y="610" as="sourcePoint" />
            <mxPoint x="471" y="700" as="targetPoint" />
            <Array as="points">
              <mxPoint x="581" y="720" />
            </Array>
          </mxGeometry>
        </mxCell>
        <mxCell id="Jj5znEcq5yF1Lm28ehH7-74" value="" style="curved=1;endArrow=classic;html=1;rounded=0;exitX=0;exitY=0.25;exitDx=0;exitDy=0;exitPerimeter=0;" edge="1" parent="1">
          <mxGeometry width="50" height="50" relative="1" as="geometry">
            <mxPoint x="405" y="700" as="sourcePoint" />
            <mxPoint x="335" y="620" as="targetPoint" />
            <Array as="points">
              <mxPoint x="385" y="730" />
              <mxPoint x="325" y="700" />
            </Array>
          </mxGeometry>
        </mxCell>
      </root>
    </mxGraphModel>
  </diagram>
</mxfile>
